# xmcd
#
# Track frame offsets: 
#        183
#        12298
#        24603
#        37573
#        50713
#        62410
#        73978
#        83413
#        94273
#        105798
#        114960
#        127978
#
# Disc length: 1849 seconds
#
# Revision: 4
# Processed by: cddbd v1.5.2PL0 Copyright (c) Steve Scherf et al.
# Submitted via: ExactAudioCopy v1.0b3
#
DISCID=8707370c
DTITLE=Hooker, John Lee - Urban Blues
DYEAR=1991
DGENRE=Blues
TTITLE0=Cry Before I Go
TTITLE1=Boom Boom Boom
TTITLE2=Backbiters and Syndicaters
TTITLE3=Mr. Lucky
TTITLE4=My Own Blues
TTITLE5=I Can't Stand To Leave You
TTITLE6=Think Twice Before You Go
TTITLE7=I'm Standing In Line
TTITLE8=Hot Spring Water Pt. 1
TTITLE9=Hot Spring Water Pt. 2
TTITLE10=The Motor City Is Burning
TTITLE11=Want Ad Blues
EXTD=
EXTT0=
EXTT1=
EXTT2=
EXTT3=
EXTT4=
EXTT5=
EXTT6=
EXTT7=
EXTT8=
EXTT9=
EXTT10=
EXTT11=
PLAYORDER=
